<svg width="101" height="33" viewBox="0 0 101 33" fill="none" xmlns="http://www.w3.org/2000/svg">
<path d="M8.8 14H5.04V0.6H8.8V14ZM13.52 3.98H0.3V0.6H13.52V3.98ZM26.3681 14H22.6081V8.92C22.6081 8.21333 22.4481 7.73333 22.1281 7.48C21.8081 7.21333 21.2148 7.08 20.3481 7.08C19.7748 7.08 19.3281 7.13333 19.0081 7.24C18.7015 7.34667 18.4881 7.52667 18.3681 7.78C18.2481 8.02 18.1881 8.36 18.1881 8.8H17.7281V6.98H18.3881C18.4948 6.40667 18.6948 5.87333 18.9881 5.38C19.2948 4.88667 19.7281 4.48667 20.2881 4.18C20.8481 3.87333 21.5548 3.72 22.4081 3.72C23.3015 3.72 24.0415 3.89333 24.6281 4.24C25.2148 4.58667 25.6481 5.06 25.9281 5.66C26.2215 6.24667 26.3681 6.91333 26.3681 7.66V14ZM18.1881 14H14.4281V0.6H18.1881V14ZM33.1145 14.2C31.9812 14.2 30.9745 14.0267 30.0945 13.68C29.2145 13.3333 28.5279 12.7733 28.0345 12C27.5412 11.2267 27.2945 10.2133 27.2945 8.96C27.2945 7.86667 27.5412 6.93333 28.0345 6.16C28.5279 5.37333 29.2012 4.77333 30.0545 4.36C30.9212 3.93333 31.9145 3.72 33.0345 3.72C34.1945 3.72 35.2012 3.91333 36.0545 4.3C36.9079 4.67333 37.5679 5.23333 38.0345 5.98C38.5012 6.71333 38.7345 7.62 38.7345 8.7C38.7345 8.87333 38.7279 9.03333 38.7145 9.18C38.7145 9.31333 38.7012 9.47333 38.6745 9.66H29.7545V7.76H35.9545L35.1345 8.94C35.1345 8.82 35.1345 8.70667 35.1345 8.6C35.1345 8.48 35.1345 8.36 35.1345 8.24C35.1345 7.62667 34.9745 7.2 34.6545 6.96C34.3479 6.72 33.7812 6.6 32.9545 6.6C32.1012 6.6 31.5212 6.73333 31.2145 7C30.9212 7.26667 30.7745 7.74667 30.7745 8.44V9.4C30.7745 10.1067 30.9279 10.5867 31.2345 10.84C31.5412 11.0933 32.1212 11.22 32.9745 11.22C33.7345 11.22 34.2412 11.1533 34.4945 11.02C34.7612 10.8733 34.8945 10.6533 34.8945 10.36V10.14H38.6545V10.38C38.6545 11.1267 38.4279 11.7867 37.9745 12.36C37.5212 12.9333 36.8812 13.3867 36.0545 13.72C35.2279 14.04 34.2479 14.2 33.1145 14.2ZM7.6 32H1.76V28.62H7.6C8.4 28.62 9.03333 28.5533 9.5 28.42C9.96667 28.2867 10.3 27.9867 10.5 27.52C10.7 27.04 10.8 26.3 10.8 25.3C10.8 24.2867 10.7 23.5467 10.5 23.08C10.3 22.6133 9.96667 22.3133 9.5 22.18C9.03333 22.0467 8.4 21.98 7.6 21.98H1.76V18.6H7.6C9.08 18.6 10.36 18.8667 11.44 19.4C12.52 19.92 13.3533 20.68 13.94 21.68C14.5267 22.68 14.82 23.8867 14.82 25.3C14.82 26.7133 14.5267 27.92 13.94 28.92C13.3533 29.92 12.52 30.6867 11.44 31.22C10.36 31.74 9.08 32 7.6 32ZM4.58 32H0.82V18.6H4.58V32ZM26.5948 32H23.0748V29.76H22.8748V26.18C22.8748 25.6733 22.7415 25.3533 22.4748 25.22C22.2215 25.0733 21.7615 25 21.0948 25C20.4815 25 20.0548 25.0733 19.8148 25.22C19.5882 25.3667 19.4748 25.6533 19.4748 26.08V26.16H15.7148V26.12C15.7148 25.2267 15.9482 24.4533 16.4148 23.8C16.8815 23.1333 17.5415 22.62 18.3948 22.26C19.2482 21.9 20.2415 21.72 21.3748 21.72C22.5482 21.72 23.5215 21.9067 24.2948 22.28C25.0682 22.64 25.6415 23.16 26.0148 23.84C26.4015 24.5067 26.5948 25.3133 26.5948 26.26V32ZM19.0748 32.2C17.9415 32.2 17.0615 31.9533 16.4348 31.46C15.8215 30.9667 15.5148 30.2933 15.5148 29.44C15.5148 28.96 15.6282 28.5333 15.8548 28.16C16.0815 27.7867 16.4348 27.4867 16.9148 27.26C17.3948 27.02 18.0148 26.86 18.7748 26.78L23.0748 26.36V28.44L19.7748 28.82C19.6015 28.8333 19.4748 28.8733 19.3948 28.94C19.3282 29.0067 19.2948 29.0933 19.2948 29.2C19.2948 29.36 19.3682 29.4667 19.5148 29.52C19.6748 29.56 19.9015 29.58 20.1948 29.58C20.8615 29.58 21.3882 29.5467 21.7748 29.48C22.1615 29.4 22.4415 29.26 22.6148 29.06C22.7882 28.86 22.8748 28.5733 22.8748 28.2L23.1548 28.12V29.88H22.8748C22.6882 30.5867 22.2815 31.1533 21.6548 31.58C21.0282 31.9933 20.1682 32.2 19.0748 32.2ZM33.1294 32.2C31.356 32.2 30.0027 31.8733 29.0694 31.22C28.136 30.5667 27.6694 29.66 27.6694 28.5V28.42H31.4294V28.62C31.4294 28.9 31.5427 29.0733 31.7694 29.14C32.0094 29.2067 32.4694 29.24 33.1494 29.24C33.8027 29.24 34.216 29.2067 34.3894 29.14C34.5627 29.06 34.6494 28.9333 34.6494 28.76C34.6494 28.6 34.5827 28.4933 34.4494 28.44C34.316 28.3733 34.016 28.3133 33.5494 28.26L30.6294 27.94C29.5894 27.8333 28.796 27.54 28.2494 27.06C27.7027 26.5667 27.4294 25.8933 27.4294 25.04C27.4294 24.44 27.596 23.8933 27.9294 23.4C28.276 22.8933 28.8294 22.4867 29.5894 22.18C30.3627 21.8733 31.376 21.72 32.6294 21.72C33.8027 21.72 34.7827 21.86 35.5694 22.14C36.3694 22.42 36.9694 22.84 37.3694 23.4C37.7827 23.9467 37.9894 24.6333 37.9894 25.46V25.54H34.2294V25.42C34.2294 25.2467 34.1894 25.1067 34.1094 25C34.0427 24.88 33.8827 24.7933 33.6294 24.74C33.3894 24.6867 33.016 24.66 32.5094 24.66C31.896 24.66 31.5094 24.7067 31.3494 24.8C31.2027 24.88 31.1294 25.0133 31.1294 25.2C31.1294 25.3333 31.2027 25.44 31.3494 25.52C31.5094 25.6 31.8827 25.6733 32.4694 25.74L34.4694 25.96C35.936 26.12 36.9494 26.4467 37.5094 26.94C38.0694 27.4333 38.3494 28.1067 38.3494 28.96C38.3494 29.5867 38.1427 30.1467 37.7294 30.64C37.3294 31.12 36.7427 31.5 35.9694 31.78C35.196 32.06 34.2494 32.2 33.1294 32.2ZM46.7923 32H44.1523C42.899 32 41.9123 31.6867 41.1923 31.06C40.4857 30.4333 40.1323 29.4667 40.1323 28.16V20.18H43.8923V27.62C43.8923 28.02 43.9657 28.2867 44.1123 28.42C44.2723 28.5533 44.5657 28.62 44.9923 28.62H46.7923V32ZM46.7923 25H38.6523V21.92H46.7923V25ZM51.8298 32.2C50.8965 32.2 50.1232 32.0333 49.5098 31.7C48.8965 31.3667 48.4365 30.9133 48.1298 30.34C47.8365 29.7667 47.6898 29.1133 47.6898 28.38V21.92H51.4498V27C51.4498 27.6933 51.6098 28.1733 51.9298 28.44C52.2632 28.7067 52.8565 28.84 53.7098 28.84C54.5765 28.84 55.1498 28.72 55.4298 28.48C55.7232 28.2267 55.8698 27.7733 55.8698 27.12H56.2498L56.5698 28.94H55.9098C55.8432 29.5 55.6632 30.0267 55.3698 30.52C55.0765 31.0133 54.6432 31.42 54.0698 31.74C53.4965 32.0467 52.7498 32.2 51.8298 32.2ZM59.6298 32H56.1098V28.9L55.8698 28.8V21.92H59.6298V32ZM64.5163 32H60.7563V21.92H64.2763V24.8L64.5163 24.9V32ZM64.5163 25.98H63.8163V24.56H64.4763C64.5696 24 64.7496 23.5067 65.0163 23.08C65.2829 22.6533 65.6429 22.32 66.0963 22.08C66.5629 21.84 67.1296 21.72 67.7963 21.72C68.5429 21.72 69.1429 21.8733 69.5963 22.18C70.0496 22.4733 70.3763 22.88 70.5763 23.4C70.7896 23.92 70.8963 24.52 70.8963 25.2V27.2H67.1363V26.02C67.1363 25.5933 67.0429 25.3 66.8563 25.14C66.6696 24.9667 66.3296 24.88 65.8363 24.88C65.3296 24.88 64.9829 24.9667 64.7963 25.14C64.6096 25.3 64.5163 25.58 64.5163 25.98ZM77.3538 32.2C76.1671 32.2 75.1338 31.9933 74.2538 31.58C73.3738 31.1533 72.6938 30.5467 72.2138 29.76C71.7338 28.9733 71.4938 28.04 71.4938 26.96C71.4938 25.8667 71.7338 24.9333 72.2138 24.16C72.6938 23.3733 73.3738 22.7733 74.2538 22.36C75.1338 21.9333 76.1671 21.72 77.3538 21.72C78.5004 21.72 79.4938 21.9067 80.3338 22.28C81.1871 22.64 81.8404 23.1533 82.2938 23.82C82.7604 24.4867 82.9938 25.2733 82.9938 26.18V26.5H79.2538V26.34C79.2538 25.82 79.0738 25.48 78.7138 25.32C78.3671 25.16 77.8871 25.08 77.2738 25.08C76.5804 25.08 76.0671 25.2 75.7338 25.44C75.4004 25.6667 75.2338 26.1733 75.2338 26.96C75.2338 27.7333 75.4004 28.24 75.7338 28.48C76.0671 28.7067 76.5804 28.82 77.2738 28.82C77.8871 28.82 78.3671 28.7467 78.7138 28.6C79.0738 28.44 79.2538 28.1 79.2538 27.58V27.4H82.9938V27.74C82.9938 28.6333 82.7604 29.4133 82.2938 30.08C81.8404 30.7467 81.1871 31.2667 80.3338 31.64C79.4938 32.0133 78.5004 32.2 77.3538 32.2ZM95.9384 32H92.1784V26.92C92.1784 26.2133 92.0184 25.7333 91.6984 25.48C91.3784 25.2133 90.7851 25.08 89.9184 25.08C89.3451 25.08 88.8984 25.1333 88.5784 25.24C88.2718 25.3467 88.0584 25.5267 87.9384 25.78C87.8184 26.02 87.7584 26.36 87.7584 26.8H87.2984V24.98H87.9584C88.0651 24.4067 88.2651 23.8733 88.5584 23.38C88.8651 22.8867 89.2984 22.4867 89.8584 22.18C90.4184 21.8733 91.1251 21.72 91.9784 21.72C92.8718 21.72 93.6118 21.8933 94.1984 22.24C94.7851 22.5867 95.2184 23.06 95.4984 23.66C95.7918 24.2467 95.9384 24.9133 95.9384 25.66V32ZM87.7584 32H83.9984V18.6H87.7584V32ZM100.825 32H97.0648V21.92H100.825V32ZM100.825 21H97.0648V18.6H100.825V21Z" fill="#F2F4F7"/>
</svg>
